<svg width="256" height="256" viewBox="0 0 256 256" xmlns="http://www.w3.org/2000/svg">
 <g>
  <rect height="202.75" width="112.75" y="29.25" x="71.375" fill="#ffffff"/>
  <g>
   <g transform="matrix(0.0409485, 0, 0, -0.0409485, -864.364, -423.321)" fill="#000000">
    <path d="m23081.964844,-10491.642578c-87,-11 -184,-61 -226,-116c-18,-23 -43,-68 -56,-100l-23,-58l0,-2695c0,-2514.999023 1,-2698.998047 17,-2749.998047c35,-113 100,-180 209,-217c51,-17 123,-18 1224,-18l1170,0l60,24c77,30 144,98 176,177l24,59l5,1191.998047c4,935 8,1195 18,1205c9,9 12,96 12,364c0,300 -2,353 -15,364c-12,10 -15,37 -15,121c0,82 4,111 15,123c12,12 15,46 15,179c0,134 -3,167 -15,177c-13,11 -15,116 -15,831c0,568 -3,834 -11,871c-34,161 -128,244 -302,267c-94,13 -2167,13 -2267,0zm2495,-3019l0,-2404.999023l-1349,-3c-989,-1 -1352,1 -1362,9c-19,16 -21,4777.999023 -2,4796.999023c9,9 320,11 1363,10l1350,-3l0,-2405z"/>
   </g>
  </g>
  <g>
   <g transform="matrix(0.417822, 0, 0, 0.417822, 10.0857, 6.27436)">
    <path d="m404.779633,195.851547c0,-11.333954 -1.362976,-22.347977 -3.907043,-32.899963c-7.268921,-15.152023 -17.349976,-28.707993 -29.557983,-39.996002c-22.390991,-13.375992 -48.765991,-20.666 -76.771973,-19.644989c-77.267029,2.816986 -137.619995,67.738968 -134.804016,145.006104c0.413025,11.304001 2.169983,22.238998 5.087051,32.672989c6.302979,12.01001 14.396957,22.937988 23.93396,32.420044c21.892029,14.188965 47.990051,22.439941 76.023026,22.439941c77.316986,0 139.996979,-62.679993 139.996979,-139.998123zm-73.330994,-24.999985c8.835999,0 16,7.164001 16,15.999985s-7.164001,16 -16,16s-16,-7.164001 -16,-16s7.164001,-15.999985 16,-15.999985zm-50.000977,124.998108c42,0 76.330933,-33.998962 76.330933,-75.998993l16,0c0,51.000031 -41.330933,91.998993 -92.330933,91.998993l0,-16zm-48.999023,-92.998123c-8.835999,0 -16,-7.164001 -16,-16s7.164001,-15.999985 16,-15.999985s16,7.164001 16,15.999985s-7.164001,16 -16,16z" fill="#ff4500"/>
    <path d="m373.778595,219.850677l-16,0c0,42.000031 -34.330994,75.998993 -76.330994,75.998993l0,16c51.000061,0 92.330994,-40.998962 92.330994,-91.998993z"/>
    <circle cx="232.448627" cy="186.851628" r="16"/>
    <circle cx="331.448627" cy="186.851628" r="15.999969"/>
   </g>
  </g>
 </g>
</svg>